<?xml version="1.0" encoding="UTF-8" standalone="no"?>
<!-- Created with Inkscape (http://www.inkscape.org/) -->

<svg
   xmlns:dc="http://purl.org/dc/elements/1.1/"
   xmlns:cc="http://creativecommons.org/ns#"
   xmlns:rdf="http://www.w3.org/1999/02/22-rdf-syntax-ns#"
   xmlns:svg="http://www.w3.org/2000/svg"
   xmlns="http://www.w3.org/2000/svg"
   xmlns:xlink="http://www.w3.org/1999/xlink"
   xmlns:sodipodi="http://sodipodi.sourceforge.net/DTD/sodipodi-0.dtd"
   xmlns:inkscape="http://www.inkscape.org/namespaces/inkscape"
   id="svg3136"
   sodipodi:docname="rocketcow.svg"
   viewBox="0 0 1290.0067 639.09697"
   version="1.1"
   inkscape:version="0.91 r13725"
   width="1290.0067"
   height="639.09698">
  <defs
     id="defs3138">
    <linearGradient
       id="linearGradient3695-0"
       y2="546.35999"
       xlink:href="#linearGradient3681-9"
       gradientUnits="userSpaceOnUse"
       x2="342"
       gradientTransform="matrix(1.0071333,0,0,1.7698394,190.36674,-1225.6838)"
       y1="601.40002"
       x1="342"
       inkscape:collect="always" />
    <linearGradient
       id="linearGradient3681-9">
      <stop
         id="stop3683-3"
         style="stop-color:#b3b3b3"
         offset="0" />
      <stop
         id="stop3685-1"
         style="stop-color:#959595"
         offset="1" />
    </linearGradient>
    <linearGradient
       id="linearGradient3687-4"
       y2="714.96997"
       xlink:href="#linearGradient3681-9"
       gradientUnits="userSpaceOnUse"
       x2="119.07"
       gradientTransform="matrix(1.4107462,0,0,1.7435735,513.20367,-803.38675)"
       y1="760.85999"
       x1="70.653999"
       inkscape:collect="always" />
    <linearGradient
       id="linearGradient3693-6"
       y2="617.31"
       xlink:href="#linearGradient3681-9"
       gradientUnits="userSpaceOnUse"
       x2="340.5"
       gradientTransform="matrix(1.0071333,0,0,1.7698394,190.36674,-1225.6838)"
       y1="756.37"
       x1="340.5"
       inkscape:collect="always" />
    <linearGradient
       id="linearGradient3689-8"
       y2="201.14999"
       xlink:href="#linearGradient3681-9"
       gradientUnits="userSpaceOnUse"
       x2="-634.34998"
       gradientTransform="matrix(1.3697306,0,0,1.7554554,-93.150077,-1316.796)"
       y1="210.14999"
       x1="-731.22998"
       inkscape:collect="always" />
  </defs>
  <sodipodi:namedview
     id="base"
     bordercolor="#666666"
     inkscape:pageshadow="2"
     inkscape:guide-bbox="true"
     pagecolor="#ffffff"
     inkscape:window-height="801"
     inkscape:window-maximized="1"
     inkscape:zoom="0.49497475"
     inkscape:window-x="-8"
     showgrid="false"
     borderopacity="1.0"
     inkscape:current-layer="layer1"
     inkscape:cx="796.12052"
     inkscape:cy="192.41966"
     showguides="true"
     inkscape:window-y="-8"
     inkscape:window-width="1536"
     inkscape:pageopacity="0.0"
     inkscape:document-units="px"
     fit-margin-top="0"
     fit-margin-left="0"
     fit-margin-right="0"
     fit-margin-bottom="0" />
  <g
     id="layer1"
     inkscape:label="Layer 1"
     inkscape:groupmode="layer"
     transform="translate(550.24654,-138.59)">
    <path
       id="path5605"
       sodipodi:nodetypes="cc"
       style="fill:none;stroke:#989898;stroke-width:9.19999981;stroke-linecap:round;stroke-dasharray:220.79999542, 9.19999981"
       inkscape:connector-curvature="0"
       d="m 68.191363,445.22 c -107.09,-43.247 -29.286,76.5 -29.286,182.86" />
    <g
       transform="matrix(-0.48724154,-1.0201254,-1.7642233,0.80672582,1328.1559,529.70612)"
       id="g4356">
      <path
         inkscape:connector-curvature="0"
         id="path4342"
         d="m 445.1207,611.82331 c -4.29923,-11.12299 -5.51166,-17.14025 -5.89279,-29.0563 -0.59625,-19.04692 6.19328,-34.44613 19.05748,-43.24209 10.63697,-7.28844 24.01737,-7.63224 38.50543,-1.01977 16.77778,7.64987 27.6967,18.43083 40.96794,40.38661 16.80217,27.78514 28.75808,40.97815 34.82105,38.45509 1.67208,-0.68536 1.87623,-0.54734 1.1115,0.81607 -1.65104,2.99215 -9.00312,5.24864 -16.47694,5.05872 -4.0171,-0.10323 -7.44145,-0.10887 -7.60349,-0.0441 -0.45751,0.19813 5.13633,4.14779 13.97516,9.87925 8.965,5.79771 13.29483,9.87696 19.61208,18.55215 2.42115,3.3167 6.88429,8.9181 9.93669,12.4578 3.03521,3.552 5.95502,7.6313 6.46189,9.0929 0.7969,2.2965 0.2325,2.1297 -4.36988,-1.3872 -6.95417,-5.291 -14.21998,-9.025 -18.56316,-9.5437 -5.93596,-0.7001 -5.98175,0.4296 -0.12026,3.3766 6.85592,3.4556 15.55547,10.802 23.20927,19.5564 7.38388,8.4528 7.66319,9.1649 2.59473,6.3766 -4.23925,-2.2909 -9.01906,-3.4864 -9.34512,-2.311 -0.10389,0.3622 1.43468,2.3842 3.44132,4.512 1.97705,2.1231 5.97867,7.4834 8.84607,11.8877 6.62995,10.1204 13.54885,16.194 24.72404,21.7261 5.04004,2.4958 7.77596,4.332 6.4299,4.3119 -1.28698,-0.011 -5.23361,0.02 -8.76942,0.041 -3.52342,0.038 -8.47936,-0.5342 -10.95584,-1.2519 -2.50616,-0.7227 -4.59962,-1.0907 -4.65971,-0.8123 -0.06,0.2783 1.86175,3.5901 4.24089,7.3545 5.78536,9.0594 13.62122,17.3428 18.72226,19.7424 5.55001,2.6236 3.54521,3.2099 -2.46909,0.7387 l -4.79123,-1.9706 5.86617,11.8466 c 6.64694,13.3979 9.08638,16.4141 18.30459,22.7071 6.51186,4.4616 15.35147,12.7248 14.95963,14.0261 -0.0916,0.3794 -3.60063,-1.5511 -7.76837,-4.2853 -12.00926,-7.8801 -18.7452,-11.4227 -19.43539,-10.2454 -0.35849,0.6244 0.7559,3.3966 2.55276,6.3547 2.91885,4.8372 2.9646,5.1175 0.58712,3.1269 -1.43082,-1.186 -4.94075,-5.1785 -7.75765,-8.8621 -5.74253,-7.4454 -8.73194,-10.2473 -10.26397,-9.5847 -0.63583,0.2764 0.121,2.4452 1.94363,5.6197 1.64632,2.858 2.60046,5.1193 2.13239,5.0135 -2.58623,-0.5082 -10.04748,-10.5504 -17.0184,-22.8785 -7.27428,-12.8926 -15.08996,-23.4618 -17.68866,-23.9871 -1.39653,-0.2708 3.88693,16.879 8.94789,29.0202 3.27916,7.8667 7.72214,15.2841 14.14808,23.5676 1.35228,1.7648 0.72161,1.5415 -2.19158,-0.7933 -6.4985,-5.2023 -15.29699,-16.9155 -24.31479,-32.4392 -11.00134,-18.9212 -18.66172,-29.89 -27.72355,-39.6902 -8.38865,-9.0849 -27.36931,-26.4736 -28.41027,-26.0351 -2.37666,1.0114 13.77586,37.1521 20.48211,45.8597 l 3.05715,3.9801 -3.19159,-1.9248 c -11.15724,-6.7725 -22.75458,-20.5897 -34.57668,-41.1896 -19.60884,-34.1661 -23.28071,-40.2627 -25.96888,-42.8644 -2.73784,-2.6702 -2.72843,-2.4403 0.27993,7.7629 1.70251,5.7922 3.18761,10.777 3.30574,11.0851 0.42938,1.2815 -6.76638,-6.0794 -18.87085,-19.2974 -18.44758,-20.12191 -28.05636,-34.15013 -34.02765,-49.5764 z m 198.5508,197.96205 c 4.38995,0.5111 6.77791,2.6246 14.44118,12.7298 2.99799,3.9706 8.14572,9.1824 11.6509,11.7945 6.93873,5.1974 6.6546,6.8647 -0.73334,4.2629 -7.84642,-2.7664 -13.49362,-7.983 -19.40375,-17.866 -2.93892,-4.901 -6.32875,-9.4502 -7.58229,-10.1376 -2.10009,-1.1726 -2.00193,-1.2174 1.6273,-0.7836 z m 49.00954,47.1111 c 0.2431,-0.097 2.56615,2.3243 5.14859,5.3939 2.58715,3.0401 5.87876,6.2242 7.32009,7.0632 1.45853,0.8265 0.18974,0.5157 -2.82838,-0.6989 -4.68256,-1.8924 -5.78264,-2.8733 -7.78918,-6.8811 -1.25353,-2.5672 -2.09901,-4.7503 -1.85112,-4.8771 z m -34.94563,-79.8781 c 2.00477,0.8237 5.02571,3.0545 6.72343,4.9355 1.68062,1.8933 4.69872,4.5178 6.71567,5.8284 l 3.64443,2.4072 -6.01129,-1.9247 c -6.15918,-1.9487 -7.94256,-3.2978 -12.2504,-9.2989 l -2.49088,-3.4491 z m 37.37538,46.1135 c 3.46328,0.7104 7.18202,4.6304 10.23808,10.7784 1.27833,2.6015 4.47748,6.9229 7.10463,9.6208 l 4.75971,4.8914 -5.1087,-2.4463 c -7.43456,-3.534 -9.01035,-5.1375 -14.67552,-14.7535 -5.09423,-8.6447 -5.09423,-8.6447 -2.3182,-8.0908 z"
         style="fill:#e76709;fill-opacity:1;fill-rule:nonzero;stroke:none" />
      <path
         inkscape:connector-curvature="0"
         id="path4344"
         d="m 560.71517,617.11471 c -0.0914,-0.27169 -0.68061,-0.76172 -2.12772,-1.75317 -7.20868,-5.02886 -12.03795,-10.52286 -19.05779,-21.79767 -3.73112,-5.9981 -6.58318,-10.12804 -10.87106,-15.77628 -6.62519,-8.74001 -14.11019,-17.51358 -17.97868,-21.06264 -8.93026,-8.17194 -24.06848,-13.94933 -34.26287,-13.06224 -6.45784,0.56632 -13.11179,3.46395 -17.236,7.5146 -7.76765,7.64618 -11.13475,22.21691 -8.97881,38.83199 0.83299,6.39573 2.11603,10.84765 4.94907,17.15666 3.06179,6.77043 6.30676,12.493 10.86707,19.09679 6.44593,9.28723 22.55248,28.22761 23.35889,27.46421 0.11249,-0.1334 0.26136,-1.1565 0.28997,-2.2738 0.0287,-1.1173 0.18682,-2.0914 0.38315,-2.1809 0.77994,-0.33 6.40618,6.5205 11.16854,13.6572 4.52996,6.7789 8.53593,13.3381 18.07229,29.6884 15.88482,27.2741 22.1983,37.5708 24.03907,39.0351 0.52621,0.4033 -0.38412,-1.9419 -3.40593,-8.5845 -2.80536,-6.1985 -4.94535,-12.1986 -6.81748,-19.2016 -1.68891,-6.3516 -2.7135,-12.6873 -2.33979,-14.6282 0.33561,-1.7044 0.98001,-1.7521 2.80178,-0.1696 2.19728,1.8857 19.91083,19.7975 23.46465,23.7061 8.15714,9.0175 18.22632,21.8756 25.43485,32.5442 1.56689,2.3148 8.28749,13.2832 9.27405,15.1556 1.08578,2.0095 -0.29446,-2.2156 -4.33054,-13.1906 -8.19393,-22.2283 -8.71726,-24.4352 -4.76688,-20.9174 2.89986,2.6055 5.72538,6.0479 11.13704,13.7583 3.14617,4.4641 5.99582,7.941 7.94342,9.5892 1.49278,1.2718 1.66729,1.2241 1.39558,-0.3812 -0.24874,-1.4653 0.15163,-2.0677 1.13543,-1.6816 1.05534,0.4128 2.73401,1.9419 6.20587,5.7008 3.83308,4.1508 4.56996,4.8458 5.55376,5.2319 0.72733,0.2841 0.87226,0.2317 0.89708,-0.204 0.0181,-0.3003 -0.13254,-0.8703 -0.35369,-1.285 -0.38794,-0.7903 -0.244,-1.9648 0.25938,-2.1716 0.13256,-0.07 0.85699,0.1382 1.57481,0.4815 1.79795,0.7902 5.47948,5.1288 9.19717,10.7467 0.8977,1.3882 0.79774,1.0688 -0.9246,-2.7265 -2.73581,-6.0659 -3.77966,-7.5835 -8.94445,-13.253 -5.76353,-6.2814 -8.75961,-10.3578 -11.70121,-15.8048 -2.62618,-4.8657 -2.75965,-5.4481 -1.39544,-6.1984 l 0.89802,-0.4918 -2.99042,-2.514 c -4.21346,-3.4844 -6.28783,-5.8505 -8.19529,-9.251 -1.78354,-3.2288 -2.11045,-4.5854 -1.20382,-5.3185 1.41854,-1.1811 6.66544,0.8782 12.36506,4.8298 1.78552,1.2431 3.28411,2.1974 3.30312,2.0792 0.0849,-0.244 0.59008,0.3833 -15.75926,-19.2187 -7.68805,-9.1996 -14.02728,-16.8928 -14.1341,-17.0768 -0.23635,-0.5081 0.36328,-0.654 2.07635,-0.5596 2.49571,0.1298 2.45565,0 -0.31071,-3.4309 -3.37077,-4.1974 -11.44571,-13.065 -14.31888,-15.742 -1.32034,-1.2135 -2.49758,-2.3738 -2.62439,-2.6216 -0.31078,-0.611 -0.021,-1.1859 1.04961,-2.0896 2.07729,-1.7874 7.1734,-1.7079 11.31454,0.1577 1.40318,0.6055 3.28118,1.6513 4.15531,2.2471 0.89132,0.5835 1.57197,0.8752 1.54629,0.6587 -0.0915,-0.5605 -4.57094,-5.9677 -7.24298,-8.7638 -4.83691,-5.07071 -7.85594,-7.40732 -16.64711,-12.96434 -13.44706,-8.46153 -17.13064,-12.87519 -13.96962,-16.77681 0.85238,-1.06116 1.44343,-1.4358 3.62451,-2.35645 2.87912,-1.21938 4.26329,-1.43573 9.50061,-1.37822 1.78645,0.0153 3.40915,-0.0878 3.61507,-0.23653 0.0858,-0.0619 0.0837,-0.13706 0.0513,-0.21809 z"
         style="fill:#f3a706;fill-opacity:1;fill-rule:nonzero;stroke:none" />
      <path
         inkscape:connector-curvature="0"
         id="path4346"
         d="m 639.63455,731.52776 c -1.26784,-0.5988 -4.35842,-2.0221 -7.94946,-3.6323 3.59104,1.6102 6.68641,3.004 7.94946,3.6323 z m 28.40334,74.2897 c -0.53283,-0.2679 -1.30023,-0.6798 -2.22592,-1.2384 0.92569,0.5586 1.69309,0.9705 2.22592,1.2384 z m -38.62742,-73.8773 c -2.15355,-0.09 -4.26035,-0.1869 -6.16312,-0.3271 1.90277,0.1402 3.99246,0.2498 6.16312,0.3271 z m -26.37726,-43.4296 c -1.11683,-1.4389 -2.43176,-2.9697 -3.88931,-4.5541 1.45755,1.5844 2.77208,3.1155 3.88931,4.5541 z m 14.64536,42.4771 c -1.62149,-0.4739 -2.68346,-0.7513 -3.34314,-0.7971 0.67678,0.033 1.70446,0.3356 3.34314,0.7971 z m -3.91608,-0.7228 c -0.14491,0.053 -0.23551,0.144 -0.28888,0.287 0.0534,-0.143 0.14395,-0.2345 0.28888,-0.287 z m 5.15497,10.4281 c -0.84268,-1.1669 -1.63892,-2.3412 -2.35074,-3.472 0.71182,1.1308 1.50806,2.3051 2.35074,3.472 z m -5.30851,-9.1945 c 0.19735,0.5624 0.5681,1.3652 1.08269,2.4031 -0.51459,-1.0379 -0.88534,-1.8407 -1.08269,-2.4031 z m -31.37386,-36.1401 c -0.7513,-1.0762 -4.3011,-4.7266 -8.57466,-8.8726 -9.72914,-9.4227 -22.67527,-24.2762 -24.65233,-28.2791 l -1.23348,-2.5034 5.39566,0.8552 c 7.37087,1.2042 9.53775,0.083 3.88185,-2.0723 -6.08958,-2.2862 -11.57954,-6.59813 -17.00113,-13.30994 -4.77964,-5.89533 -16.44956,-25.27218 -14.82701,-24.61631 0.49962,0.18573 4.74929,5.41946 9.42216,11.60079 8.63467,11.41407 13.92141,16.24 19.1002,17.59024 4.72834,1.23274 4.53193,0.38244 -1.06993,-4.73533 -4.38684,-4.01369 -6.16185,-6.54378 -10.11225,-14.47225 -2.61937,-5.29014 -5.02724,-11.22734 -5.30015,-13.19558 -0.81195,-5.96881 -7.23118,-20.20823 -13.25581,-29.38196 -14.09862,-21.43834 -27.9481,-31.43273 -43.47137,-31.34466 -18.74189,0.11486 -27.49699,15.28694 -22.89136,39.74113 1.70809,9.0535 4.6822,15.05175 14.74298,29.56119 4.547,6.58555 11.89874,16.07849 16.31236,21.1416 4.40212,5.04703 10.40765,12.45908 13.35341,16.46568 6.23241,8.4493 25.51715,38.3343 28.83239,44.6602 l 2.24681,4.3042 -1.25246,-4.7351 c -0.70251,-2.5996 -2.09213,-9.1152 -3.06245,-14.4718 -1.80528,-9.7666 -1.89951,-14.1632 -0.27801,-10.8696 2.92165,5.8534 36.51938,38.1682 38.73392,37.2216 0.53767,-0.2316 -0.36121,-2.2717 -2.16668,-4.9886 -4.79112,-7.1404 -3.66999,-6.8534 11.3175,3.0536 7.42683,4.8971 19.64131,11.0367 17.02741,8.538 -0.5243,-0.509 -3.44895,-3.1488 -6.52901,-5.8591 -6.20186,-5.4423 -21.92024,-24.3515 -21.4998,-25.83 0.15728,-0.5052 3.98665,0.5673 8.53101,2.3768 4.56146,1.7971 8.33744,3.0127 8.41943,2.6924 0.005,-0.03 -0.0279,-0.1104 -0.13944,-0.2649 z m 47.30442,95.8347 c 0.0527,0.1447 0.0753,0.285 0.10771,0.3661 -0.0155,-0.093 -0.0481,-0.1742 -0.10771,-0.3661 z m -5.99419,-4.7571 c -0.77695,-0.8228 -1.54719,-1.7808 -2.37459,-2.8543 0.82716,1.0736 1.59764,2.0315 2.37459,2.8543 z m -24.12306,-36.7291 c -1.74826,-2.1317 -3.20476,-3.5338 -4.22382,-4.0772 1.01906,0.5434 2.48795,1.9627 4.22382,4.0772 z m -4.76624,-4.286 c -0.0712,-0.027 -0.12295,0.011 -0.16685,0.094 0.0387,-0.054 0.0954,-0.1211 0.16685,-0.094 z m 23.10459,52.3466 c -0.005,0.029 -0.009,0.059 -0.0387,0.054 0.0465,-0.01 0.0465,-0.01 0.0387,-0.054 z m -0.32984,-0.023 c -0.23928,-0.1144 -0.65395,-0.3632 -1.18016,-0.7665 0.55579,0.408 0.91131,0.6474 1.18016,0.7665 z m -9.73771,-8.7115 c -1.33172,-1.5186 -2.68903,-3.2534 -4.14366,-5.2316 1.45455,1.9782 2.81194,3.713 4.14366,5.2316 z m -24.02655,-36.6679 c -2.48134,-3.9782 -4.81778,-7.5388 -7.15803,-10.8878 2.34066,3.3487 4.67669,6.9096 7.15803,10.8878 z m -36.2251,-11.8018 c -1.72063,-1.5511 -3.50595,-3.264 -5.28472,-5.1125 1.76638,1.8314 3.56409,3.5614 5.28472,5.1125 z m -9.18456,-9.3195 c -1.0124,-1.1487 -2.02,-2.327 -2.96853,-3.4958 0.96116,1.1857 1.95613,2.3471 2.96853,3.4958 z m -5.76256,-7.0393 c -1.11219,-1.4683 -2.36695,-3.2775 -3.76035,-5.3521 1.3934,2.0746 2.64816,3.8838 3.76035,5.3521 z m -3.76035,-5.3521 c -1.36406,-2.0697 -2.83303,-4.4291 -4.4288,-7.0364 1.59577,2.6073 3.06474,4.9667 4.4288,7.0364 z m -33.45019,-48.4514 c 1.3097,3.9105 2.42881,7.5931 2.91506,9.4594 -0.48625,-1.8663 -1.60536,-5.5489 -2.91506,-9.4594 z m -56.33557,-93.9871 c -0.10104,1.8484 -0.14309,3.70642 -0.1012,5.60825 -0.0419,-1.90183 -0.0114,-3.77587 0.1012,-5.60825 z m 26.61066,69.7105 c -1.36699,-1.67594 -2.68249,-3.38905 -3.96924,-5.09855 1.2865,1.70968 2.60225,3.42261 3.96924,5.09855 z m -3.96924,-5.09855 c -1.26784,-1.71969 -2.50708,-3.43567 -3.70071,-5.16021 1.19363,1.72454 2.43287,3.44052 3.70071,5.16021 z m -5.41853,-7.75596 c -1.14555,-1.73141 -2.22094,-3.43691 -3.24858,-5.14905 1.02764,1.71214 2.10279,3.41781 3.24858,5.14905 z"
         style="fill:#fcea01;fill-opacity:1;fill-rule:nonzero;stroke:none" />
    </g>
    <rect
       id="rect5524-4-1"
       style="fill:#999999;fill-rule:evenodd"
       ry="53.092999"
       height="253.03999"
       width="78.183998"
       y="269.82486"
       x="499.1055"
       transform="matrix(0.78043683,0.62523464,-0.62523464,0.78043683,0,0)" />
    <rect
       id="rect5524-4"
       style="fill:#999999;fill-rule:evenodd"
       ry="46.945999"
       height="223.75"
       width="78.183998"
       y="188.28326"
       x="736.25311"
       transform="matrix(0.83988444,0.54276526,-0.54276526,0.83988444,0,0)" />
    <path
       id="rect5524"
       sodipodi:nodetypes="ssssssssss"
       style="fill:#cccccc;fill-rule:evenodd"
       inkscape:connector-curvature="0"
       d="m 529.11136,405.22 -413.28,0 c -30.352997,0 -54.787997,24.436 -54.787997,54.788 l 0,151.55 c 0,30.353 24.436,54.869 54.787997,54.788 l 381.21,-1.02 c 7.3576,-0.0195 32.446,-15.051 50.622,-25.892 18.906,-11.276 36.238,-22.039 36.238,-31.993 l 0,-147.44 c 0,-30.353 -24.436,-54.788 -54.788,-54.788 z" />
    <path
       id="path5381"
       sodipodi:nodetypes="cc"
       d="m 633.91136,255.22 c 114.5,-11.302 154.8,62.806 25.705,65"
       style="fill:#e6e6e6"
       inkscape:connector-curvature="0" />
    <path
       id="path5379"
       style="fill:#e6e6e6"
       inkscape:connector-curvature="0"
       d="m 383.65136,255.22 c -113.07,-11.302 -152.87,62.806 -25.384,65" />
    <path
       id="path5333"
       sodipodi:nodetypes="saaasscssscss"
       style="fill:#f2f2f2;fill-rule:evenodd"
       inkscape:connector-curvature="0"
       d="m 356.84136,309.33 c -18.905,60.857 4.5368,138.16 48.487,184.85 25.478,27.065 68.95,36.042 106.44,35.778 35.985,-0.25429 77.503,-9.525 101.65,-35.778 43.062,-46.83 64.899,-123.37 46.462,-183.86 -4.8532,-15.923 -12.503,-32.332 -22.272,-47.989 -9.7691,-15.657 57.722,-82.558 57.722,-119.32 -20.906,24.878 -120.81,52.01 -136.35,44.315 -15.537,-7.6953 -31.838,-12.162 -48.226,-12.162 -16.388,0 -32.95,4.3545 -48.888,11.894 -15.938,7.5394 -106.52,-21.097 -140.11,-48.263 0,43.051 68.608,106.76 58.36,122.36 -10.248,15.601 -18.275,32.048 -23.284,48.172 z" />
    <ellipse
       id="path5339"
       style="fill:#ffffff;fill-rule:evenodd;stroke:#000000;stroke-width:3.93093967"
       transform="scale(-1,1)"
       cx="-558.758"
       cy="334.14487"
       rx="51.40366"
       ry="59.934227" />
    <ellipse
       id="path5341"
       style="fill:#ffffff;fill-rule:evenodd;stroke:#000000;stroke-width:3.57406688"
       transform="scale(-1,1)"
       cx="-462.76303"
       cy="334.15063"
       rx="33.659096"
       ry="39.244999" />
    <path
       id="path5343"
       sodipodi:rx="20.550514"
       sodipodi:ry="23.960606"
       style="fill:#000000;fill-rule:evenodd"
       sodipodi:type="arc"
       d="m -538.20773,340.26263 a 20.550514,23.960606 0 0 1 -19.92404,23.94947 20.550514,23.960606 0 0 1 -21.13879,-22.48929 20.550514,23.960606 0 0 1 18.63524,-25.32062 20.550514,23.960606 0 0 1 22.27496,20.94553"
       sodipodi:open="true"
       transform="scale(-1,1)"
       sodipodi:cy="340.26263"
       sodipodi:cx="-558.75824"
       sodipodi:end="6.1612287"
       sodipodi:start="0" />
    <path
       id="path5345"
       sodipodi:rx="13.456384"
       sodipodi:ry="15.68979"
       style="fill:#000000;fill-rule:evenodd"
       sodipodi:type="arc"
       d="m -451.3014,338.15182 a 13.456384,15.68979 0 0 1 -13.04617,15.6825 13.456384,15.68979 0 0 1 -13.84159,-14.72635 13.456384,15.68979 0 0 1 12.20227,-16.58035 13.456384,15.68979 0 0 1 14.58554,13.71547"
       sodipodi:open="true"
       transform="scale(-1,1)"
       sodipodi:cy="338.15182"
       sodipodi:cx="-464.75778"
       sodipodi:end="6.1612287"
       sodipodi:start="0" />
    <path
       id="path5379-0"
       style="fill:#b3b3b3"
       inkscape:connector-curvature="0"
       d="m 383.18136,255.28 c 1.3041,0.10627 2.5868,0.18456 3.9105,0.3125 l -26.242,65 c -63.584,-1.0581 -86.912,-18.824 -80.924,-35.688 4.872,13.255 29.952,24.839 80.924,25.688 l 22.332,-55.312 z" />
    <path
       id="path5333-7"
       style="fill:#cccccc;fill-rule:evenodd"
       inkscape:connector-curvature="0"
       d="m 321.29136,138.59 c 10.88,8.7999 27.727,17.751 46.094,25.58 16.581,39.395 60.601,84.071 52.25,96.784 -10.248,15.601 -18.272,32.023 -23.281,48.146 -18.905,60.857 4.5495,138.18 48.5,184.87 20.632,21.918 53.059,31.973 84.562,34.865 -6.1244,0.56661 -12.198,0.88046 -18.125,0.92234 -37.494,0.26497 -80.96,-8.7223 -106.44,-35.787 -43.95,-46.688 -67.405,-124.01 -48.5,-184.87 5.01,-16.11 13.04,-32.53 23.29,-48.13 10.24,-15.6 -58.35,-79.31 -58.35,-122.37 z" />
    <path
       id="path5331"
       sodipodi:rx="145.46111"
       sodipodi:ry="92.933983"
       style="fill:#de8787;fill-rule:evenodd"
       sodipodi:type="arc"
       d="m -363.70262,437.38712 a 145.46111,92.933983 0 0 1 -141.02681,92.89079 145.46111,92.933983 0 0 1 -149.62505,-87.22735 145.46111,92.933983 0 0 1 131.90434,-98.20894 145.46111,92.933983 0 0 1 157.66711,81.23966"
       sodipodi:open="true"
       transform="scale(-1,1)"
       sodipodi:cy="437.38712"
       sodipodi:cx="-509.16373"
       sodipodi:end="6.1612287"
       sodipodi:start="0" />
    <path
       id="path5335"
       sodipodi:rx="26.263966"
       sodipodi:ry="26.769043"
       style="fill:#ffffff;fill-rule:evenodd"
       sodipodi:type="arc"
       d="m -532.39576,447.18695 a 26.263966,26.769043 0 0 1 -25.46333,26.7566 26.263966,26.769043 0 0 1 -27.01579,-25.12528 26.263966,26.769043 0 0 1 23.8162,-28.28846 26.263966,26.769043 0 0 1 28.46784,23.40057"
       sodipodi:open="true"
       transform="scale(-1,1)"
       sodipodi:cy="447.18695"
       sodipodi:cx="-558.65973"
       sodipodi:end="6.1612287"
       sodipodi:start="0" />
    <path
       id="path5337"
       sodipodi:rx="26.263966"
       sodipodi:ry="26.769043"
       style="fill:#ffffff;fill-rule:evenodd"
       sodipodi:type="arc"
       sodipodi:start="0"
       sodipodi:open="true"
       transform="scale(-1,1)"
       sodipodi:cy="447.18695"
       sodipodi:cx="-458.65973"
       sodipodi:end="6.1612287"
       d="m -432.39576,447.18695 a 26.263966,26.769043 0 0 1 -25.46333,26.7566 26.263966,26.769043 0 0 1 -27.01579,-25.12528 26.263966,26.769043 0 0 1 23.8162,-28.28846 26.263966,26.769043 0 0 1 28.46784,23.40057" />
    <path
       id="path5333-4"
       style="fill:#cccccc;fill-rule:evenodd"
       d="m 695.41736,143 c 0,5.02 -1.229,10.58 -3.312,16.5 -36.354,18.69 -97.924,33.9 -112.09,28.91 34.94,-4.67 99.125,-25.72 115.41,-45.41 z m -177.28,392.94 c 0.62,0.03 1.25,0.09 1.87,0.12 -0.63,0.03 -1.25,0.04 -1.87,0.06 -0.01,-0.06 0,-0.12 0,-0.18 z"
       inkscape:connector-curvature="0" />
    <path
       id="path5335-8"
       style="fill:#f2f2f2;fill-rule:evenodd"
       inkscape:connector-curvature="0"
       d="m 562.02136,473.45 c -1.3002,0.19267 -2.6458,0.31626 -4,0.31626 -14.784,0 -26.75,-11.918 -26.75,-26.597 0,-14.68 11.966,-26.565 26.75,-26.565 l 3.2812,0.18975 c 0.22001,0.0268 0.43805,0.0629 0.65625,0.0949 -12.849,1.9494 -22.688,12.978 -22.688,26.281 0,13.324 9.8708,24.357 22.75,26.281 z" />
    <path
       id="path5513"
       d="m 462.02136,473.52 c -1.3002,0.1936 -2.6458,0.31779 -4,0.31779 -14.784,0 -26.75,-11.975 -26.75,-26.726 0,-14.75 11.966,-26.694 26.75,-26.694 l 3.2812,0.19067 c 0.22001,0.0269 0.43807,0.0632 0.65625,0.0953 -12.849,1.9589 -22.688,13.04 -22.688,26.408 0,13.389 9.8709,24.475 22.75,26.408 z"
       style="fill:#f2f2f2;fill-rule:evenodd"
       inkscape:connector-curvature="0" />
    <path
       id="path5515"
       sodipodi:rx="7.8231292"
       sodipodi:ry="9.1213741"
       style="fill:#f9f9f9;fill-rule:evenodd"
       sodipodi:type="arc"
       d="m -557.55266,331.52618 a 7.8231292,9.1213741 0 0 1 -7.58465,9.11714 7.8231292,9.1213741 0 0 1 -8.04707,-8.56127 7.8231292,9.1213741 0 0 1 7.09402,-9.63911 7.8231292,9.1213741 0 0 1 8.47959,7.97359"
       sodipodi:open="true"
       transform="scale(-1,1)"
       sodipodi:cy="331.52618"
       sodipodi:cx="-565.37579"
       sodipodi:end="6.1612287"
       sodipodi:start="0" />
    <path
       id="path5517"
       sodipodi:rx="5.1227088"
       sodipodi:ry="5.9727683"
       style="fill:#f9f9f9;fill-rule:evenodd"
       sodipodi:type="arc"
       d="m -463.97171,332.43295 a 5.1227088,5.9727683 0 0 1 -4.96655,5.97 5.1227088,5.9727683 0 0 1 -5.26935,-5.60601 5.1227088,5.9727683 0 0 1 4.64528,-6.31179 5.1227088,5.9727683 0 0 1 5.55257,5.22119"
       sodipodi:open="true"
       transform="scale(-1,1)"
       sodipodi:cy="332.43295"
       sodipodi:cx="-469.09442"
       sodipodi:end="6.1612287"
       sodipodi:start="0" />
    <path
       id="path5519"
       style="fill:#d35f5f;fill-rule:evenodd"
       inkscape:connector-curvature="0"
       d="m 512.92136,344.47 c 1.9816,0.0321 3.9451,0.10528 5.9062,0.1875 -60.831,2.8188 -110.96,36.82 -118.47,81.438 l -0.9375,11.281 c 0,49.283 52.668,89.617 119.25,92.75 -3.1448,0.1297 -6.3039,0.1875 -9.5,0.1875 -80.336,0 -145.47,-41.611 -145.47,-92.938 l 1.0938,-11.281 c 8.9407,-46.605 70.882,-81.625 144.38,-81.625 1.2553,0 2.5024,-0.0202 3.75,0 z" />
    <rect
       id="rect5524-4-5"
       style="fill:#cccccc;fill-rule:evenodd"
       ry="53.092999"
       height="253.03999"
       width="78.183998"
       y="125.14535"
       x="726.27106"
       transform="matrix(0.78483133,0.61970944,-0.61970944,0.78483133,0,0)" />
    <rect
       id="rect5524-4-7"
       style="fill:#cccccc;fill-rule:evenodd"
       ry="53.092999"
       height="253.03999"
       width="78.183998"
       y="250.0864"
       x="512.42273"
       transform="matrix(0.67027469,0.74211309,-0.74211309,0.67027469,0,0)" />
    <path
       id="path6179-15"
       style="fill:#333333"
       inkscape:connector-curvature="0"
       d="m 86.795303,689.30482 c -1.9735,8.8196 -11.40181,16.91299 -28.33724,24.86847 -36.128945,16.9722 -49.6915104,6.67798 -45.184403,-34.30892 0.213078,-1.93798 0.462659,-3.76341 0.725368,-5.55089 l 73.099215,12.47464 c -0.0533,0.84974 -0.11551,1.68011 -0.30258,2.51616 z"
       inkscape:transform-center-x="-5.6576832"
       inkscape:transform-center-y="5.7398197" />
    <rect
       id="rect3633"
       style="fill:url(#linearGradient3689-8)"
       transform="matrix(0.82456588,-0.56576595,-0.99593876,-0.09003325,0,0)"
       height="189.81496"
       width="111.60355"
       y="-1058.5956"
       x="-1073.7228" />
    <path
       id="path6179"
       style="fill:#333333"
       sodipodi:type="star"
       sodipodi:sides="3"
       inkscape:transform-center-x="-4.1659647"
       sodipodi:r1="22.901743"
       sodipodi:r2="11.450871"
       inkscape:transform-center-y="-30.089768"
       sodipodi:arg1="1.6332151"
       sodipodi:arg2="2.6804127"
       transform="matrix(-2.1208,0,0,2.1473,1189.2514,-551.93)"
       inkscape:randomized="0"
       sodipodi:cy="516.64789"
       sodipodi:cx="397.14285"
       inkscape:rounded="0.7"
       inkscape:flatsided="true"
       d="m 395.71428,539.50503 c -27.71281,-1.73205 -33.00842,-12.38892 -17.65201,-35.52289 15.35641,-23.13398 27.23333,-22.39167 39.58974,2.47435 12.3564,24.86603 5.77509,34.78059 -21.93773,33.04854 z" />
    <path
       id="path6179-1"
       style="fill:#333333"
       inkscape:connector-curvature="0"
       d="m 229.34136,405.48 c 2.248,13.648 -8.5563,29.113 -32.312,47.5 -46.973,36.357 -70.66,26.959 -78.969,-31.344 -0.82835,-5.8128 -1.3687,-11.188 -1.625,-16.156 l 112.91,0 z" />
    <path
       id="path6179-14"
       style="fill:#333333"
       sodipodi:type="star"
       sodipodi:sides="3"
       inkscape:transform-center-x="-4.1659247"
       sodipodi:r1="22.901743"
       sodipodi:r2="11.450871"
       inkscape:transform-center-y="8.8205401"
       sodipodi:arg1="1.6332151"
       sodipodi:arg2="2.6804127"
       transform="matrix(-2.1208,0,0,-0.62945,988.61136,929.68)"
       inkscape:randomized="0"
       sodipodi:cy="516.64789"
       sodipodi:cx="397.14285"
       inkscape:rounded="0.7"
       inkscape:flatsided="true"
       d="m 395.71428,539.50503 c -27.71281,-1.73205 -33.00842,-12.38892 -17.65201,-35.52289 15.35641,-23.13398 27.23333,-22.39167 39.58974,2.47435 12.3564,24.86603 5.77509,34.78059 -21.93773,33.04854 z" />
    <rect
       id="rect3631"
       style="fill:url(#linearGradient3687-4)"
       transform="matrix(0.8518287,0.52382045,-0.99259937,0.12143514,0,0)"
       height="188.53015"
       width="114.94543"
       y="360.43646"
       x="598.96106" />
    <rect
       id="rect3635"
       style="fill:url(#linearGradient3695-0)"
       transform="matrix(0.04768936,0.99886222,-0.99988099,0.01542712,0,0)"
       height="283.1756"
       width="13.092956"
       y="-228.65952"
       x="526.77313" />
    <rect
       id="rect3691"
       style="fill:url(#linearGradient3693-6)"
       transform="matrix(0.04768936,0.99886222,-0.99988099,0.01542712,0,0)"
       height="191.14764"
       width="13.092956"
       y="-136.59215"
       x="526.77313" />
  </g>
  <metadata
     id="metadata42">
    <rdf:RDF>
      <cc:Work>
        <dc:format>image/svg+xml</dc:format>
        <dc:type
           rdf:resource="http://purl.org/dc/dcmitype/StillImage" />
        <cc:license
           rdf:resource="http://creativecommons.org/publicdomain/zero/1.0/" />
        <dc:publisher>
          <cc:Agent
             rdf:about="http://openclipart.org/">
            <dc:title>Openclipart</dc:title>
          </cc:Agent>
        </dc:publisher>
        <dc:title></dc:title>
      </cc:Work>
      <cc:License
         rdf:about="http://creativecommons.org/publicdomain/zero/1.0/">
        <cc:permits
           rdf:resource="http://creativecommons.org/ns#Reproduction" />
        <cc:permits
           rdf:resource="http://creativecommons.org/ns#Distribution" />
        <cc:permits
           rdf:resource="http://creativecommons.org/ns#DerivativeWorks" />
      </cc:License>
    </rdf:RDF>
  </metadata>
</svg>
